<?xml version="1.0" encoding="UTF-8"?><svg id="cfpb_logo_es" xmlns="http://www.w3.org/2000/svg" viewBox="0 0 285 50"><defs><style>.cls-1,.cls-2,.cls-3,.cls-4{isolation:isolate;}.cls-2,.cls-3,.cls-4{fill:#5a5d61;font-family:AvenirNext-Medium, 'Avenir Next';font-size:13.89px;font-weight:500;}.cls-3{letter-spacing:-.04em;}.cls-5{fill:#20aa3f;}.cls-4{letter-spacing:-.02em;}.cls-6{fill:#addc91;}</style></defs><g id="gray" class="cls-1"><g class="cls-1"><g class="cls-1"><text class="cls-2" transform="translate(113.15 23.02)"><tspan x="0" y="0">Oficina pa</tspan></text></g></g><g class="cls-1"><g class="cls-1"><text class="cls-2" transform="translate(178.91 23.02)"><tspan x="0" y="0">r</tspan></text></g></g><g class="cls-1"><g class="cls-1"><text class="cls-2" transform="translate(183.77 23.02)"><tspan x="0" y="0">a</tspan></text></g></g><g class="cls-1"><g class="cls-1"><text class="cls-2" transform="translate(194.7 23.02)"><tspan x="0" y="0">la</tspan></text></g></g><g class="cls-1"><g class="cls-1"><text class="cls-3" transform="translate(209.3 23.02)"><tspan x="0" y="0">P</tspan></text></g></g><g class="cls-1"><g class="cls-1"><text class="cls-4" transform="translate(216.94 23.02)"><tspan x="0" y="0">r</tspan></text></g></g><g class="cls-1"><g class="cls-1"><text class="cls-2" transform="translate(221.73 23.02)"><tspan x="0" y="0">otección</tspan></text></g></g><g class="cls-1"><g class="cls-1"><text class="cls-4" transform="translate(113.15 37.61)"><tspan x="0" y="0">F</tspan></text></g></g><g class="cls-1"><g class="cls-1"><text class="cls-2" transform="translate(120.79 37.61)"><tspan x="0" y="0">inancie</tspan></text></g></g><g class="cls-1"><g class="cls-1"><text class="cls-2" transform="translate(166.5 37.61)"><tspan x="0" y="0">r</tspan></text></g></g><g class="cls-1"><g class="cls-1"><text class="cls-2" transform="translate(171.34 37.61)"><tspan x="0" y="0">a</tspan></text></g></g><g class="cls-1"><g class="cls-1"><text class="cls-2" transform="translate(182.43 37.61)"><tspan x="0" y="0">del</tspan></text></g></g><g class="cls-1"><g class="cls-1"><text class="cls-2" transform="translate(206.29 37.61)"><tspan x="0" y="0">C</tspan></text></g></g><g class="cls-1"><g class="cls-1"><text class="cls-2" transform="translate(215.95 37.61)"><tspan x="0" y="0">o</tspan></text></g></g><g class="cls-1"><g class="cls-1"><text class="cls-2" transform="translate(224.43 37.61)"><tspan x="0" y="0">n</tspan></text></g></g><g class="cls-1"><g class="cls-1"><text class="cls-2" transform="translate(232.52 37.61)"><tspan x="0" y="0">s</tspan></text></g></g><g class="cls-1"><g class="cls-1"><text class="cls-2" transform="translate(238.72 37.61)"><tspan x="0" y="0">u</tspan></text></g></g><g class="cls-1"><g class="cls-1"><text class="cls-2" transform="translate(246.81 37.61)"><tspan x="0" y="0">mi</tspan></text></g></g><g class="cls-1"><g class="cls-1"><text class="cls-2" transform="translate(262.73 37.61)"><tspan x="0" y="0">d</tspan></text></g></g><g class="cls-1"><g class="cls-1"><text class="cls-2" transform="translate(271.56 37.61)"><tspan x="0" y="0">or</tspan></text></g></g></g><path id="green" class="cls-5" d="M29.23,30.3l7.93,1.28v5.86h-7.93v-7.14ZM42.62,13.12h-5.46v-1.6c0-2.41.45-4.5,3.5-4.5.67,0,1.3.1,1.96.25V.43s-.13-.07-1.05-.21C40.62.07,39.65,0,38.6,0,30.33,0,29.22,5.69,29.22,11.25v9l13.4-2.17v-4.97h0ZM82.38.56h-7.93v12.39l7.93-1.29V.56ZM46.1,50h7.93v-13.87c1.74,1.22,3.86,1.84,6.32,1.84,2.23,0,4.28-.61,6.03-1.68l-20.28-3.28v16.99ZM60.13,12.57c-2.47,0-4.67.7-6.36,1.97v-1.43h-7.66v4.41l20.34-3.29c-1.8-1.07-3.93-1.66-6.32-1.66ZM17.38,28.38c-.85,1.29-2.27,2.21-4.27,2.21-3.4,0-5.18-2.67-5.18-5.32s1.78-5.32,5.18-5.32c1.99,0,3.42.92,4.27,2.22l8.12-1.31c-1.73-4.99-6.41-8.29-12.38-8.29-7.61,0-13.13,5.34-13.13,12.71s5.52,12.7,13.11,12.7c5.97,0,10.65-3.3,12.38-8.29l-8.11-1.31h.01Z"/><path id="green-60" class="cls-6" d="M37.16,20.23v11.35l-7.93-1.28v-10.04l13.4-2.17v2.14s-5.47,0-5.47,0ZM74.45,37.44V12.94l7.93-1.29v2.75c1.74-1.22,3.86-1.84,6.32-1.84,6.72,0,11.79,5.46,11.79,12.7s-4.94,12.7-12.02,12.7c-2.47,0-4.67-.7-6.36-1.98v1.43h-7.66v.03ZM82.2,25.28c0,2.64,1.78,5.32,5.18,5.32s5.18-2.67,5.18-5.32-1.78-5.32-5.18-5.32-5.18,2.68-5.18,5.32ZM66.38,36.3l-20.28-3.28v-15.5l20.34-3.29c3.53,2.11,5.7,6.08,5.7,11.04s-2.26,8.88-5.77,11.03h0ZM64.22,25.28c0-2.64-1.78-5.32-5.18-5.32s-5.18,2.68-5.18,5.32,1.78,5.32,5.18,5.32,5.18-2.67,5.18-5.32Z"/></svg>