<?xml version="1.0" encoding="UTF-8"?><svg id="cfpb_logo" xmlns="http://www.w3.org/2000/svg" viewBox="0 0 238 50"><defs><style>.cls-1,.cls-2,.cls-3,.cls-4,.cls-5,.cls-6{isolation:isolate;}.cls-2{letter-spacing:.02em;}.cls-2,.cls-3,.cls-4,.cls-5,.cls-6{fill:#5a5d61;font-family:AvenirNext-Medium, 'Avenir Next';font-size:13.88px;font-weight:500;}.cls-7{fill:#20aa3f;}.cls-3{letter-spacing:-.02em;}.cls-4{letter-spacing:-.02em;}.cls-5{letter-spacing:-.05em;}.cls-8{fill:#addc91;}</style></defs><g id="_gray_" class="cls-1"><g class="cls-1"><text class="cls-3" transform="translate(113.14 23.17)"><tspan x="0" y="0">C</tspan></text></g><g class="cls-1"><text class="cls-6" transform="translate(122.73 23.17)"><tspan x="0" y="0">onsume</tspan></text></g><g class="cls-1"><text class="cls-2" transform="translate(173.35 23.17)"><tspan x="0" y="0">r</tspan></text></g><g class="cls-1"><text class="cls-4" transform="translate(182.05 23.17)"><tspan x="0" y="0">F</tspan></text></g><g class="cls-1"><text class="cls-6" transform="translate(189.68 23.17)"><tspan x="0" y="0">inancial</tspan></text></g><g class="cls-1"><text class="cls-5" transform="translate(113.11 37.74)"><tspan x="0" y="0">P</tspan></text></g><g class="cls-1"><text class="cls-4" transform="translate(120.73 37.74)"><tspan x="0" y="0">r</tspan></text></g><g class="cls-1"><text class="cls-6" transform="translate(125.5 37.74)"><tspan x="0" y="0">otection Bu</tspan></text></g><g class="cls-1"><text class="cls-4" transform="translate(198.49 37.74)"><tspan x="0" y="0">r</tspan></text></g><g class="cls-1"><text class="cls-6" transform="translate(203.26 37.74)"><tspan x="0" y="0">e</tspan></text></g><g class="cls-1"><text class="cls-6" transform="translate(211.13 37.74)"><tspan x="0" y="0">au</tspan></text></g></g><path id="_green_" class="cls-7" d="M29.23,30.28l7.93,1.28v5.85h-7.93s0-7.13,0-7.13ZM42.63,13.12h-5.46v-1.6c0-2.41.45-4.5,3.5-4.5.67,0,1.3.1,1.96.25V.44s-.13-.07-1.05-.21c-.95-.15-1.92-.22-2.97-.22C30.35.01,29.23,5.7,29.23,11.26v8.99l13.4-2.17v-4.97h0ZM82.39.57h-7.93v12.37l7.93-1.29V.57ZM46.11,49.98h7.93v-13.86c1.74,1.22,3.86,1.84,6.32,1.84,2.23,0,4.28-.61,6.03-1.67l-20.28-3.27v16.97h0ZM60.13,12.57c-2.47,0-4.67.7-6.36,1.97v-1.43h-7.66v4.4l20.34-3.29c-1.8-1.07-3.93-1.66-6.32-1.66h0ZM17.38,28.36c-.85,1.29-2.27,2.21-4.27,2.21-3.4,0-5.18-2.67-5.18-5.31s1.78-5.31,5.18-5.31c1.99,0,3.42.92,4.27,2.21l8.12-1.31c-1.73-4.98-6.41-8.28-12.38-8.28C5.52,12.57,0,17.91,0,25.26s5.52,12.69,13.11,12.69c5.97,0,10.65-3.3,12.38-8.28,0,0-8.11-1.31-8.11-1.31Z"/><path id="_green-60_" class="cls-8" d="M37.17,20.22v11.34l-7.93-1.28v-10.03l13.4-2.17v2.14h-5.47ZM74.45,37.41V12.94l7.93-1.29v2.75c1.74-1.22,3.86-1.84,6.32-1.84,6.72,0,11.79,5.45,11.79,12.69s-4.94,12.69-12.02,12.69c-2.47,0-4.67-.7-6.36-1.98v1.43h-7.66v.02ZM82.21,25.26c0,2.64,1.78,5.31,5.18,5.31s5.18-2.67,5.18-5.31-1.78-5.31-5.18-5.31-5.18,2.67-5.18,5.31ZM66.39,36.28l-20.28-3.27v-15.49l20.34-3.29c3.53,2.11,5.7,6.07,5.7,11.03s-2.26,8.87-5.77,11.02h.01ZM64.22,25.26c0-2.64-1.78-5.31-5.18-5.31s-5.18,2.67-5.18,5.31,1.78,5.31,5.18,5.31,5.18-2.67,5.18-5.31Z"/></svg>