<svg width="474" height="100" viewBox="0 0 474 100" fill="none" xmlns="http://www.w3.org/2000/svg">
<g clip-path="url(#clip0_1_2)">
<path d="M243.4 30.2C242.2 28.6 240.3 27.8 238.4 27.8C233.9 27.8 230.8 31.7 230.8 36.1C230.8 40.7 233.9 44.4 238.4 44.4C240.8 44.4 242.8 43.4 244.2 41.6L246 43.1C244.2 45.5 241.6 46.6 238.4 46.6C232.7 46.6 228.2 42.2 228.2 36.1C228.2 30.2 232.4 25.6 238.4 25.6C241.1 25.6 243.8 26.5 245.5 28.7L243.4 30.2ZM255.2 32.5C259.3 32.5 262.3 35.3 262.3 39.5C262.3 43.6 259.3 46.5 255.2 46.5C251.1 46.5 248.1 43.7 248.1 39.5C248.1 35.3 251.1 32.5 255.2 32.5ZM255.2 44.4C258.1 44.4 259.9 42.2 259.9 39.5C259.9 36.7 258.1 34.6 255.2 34.6C252.3 34.6 250.5 36.7 250.5 39.5C250.5 42.2 252.4 44.4 255.2 44.4ZM265.7 36C265.7 34.8 265.6 33.7 265.6 32.9H267.7C267.7 33.6 267.8 34.3 267.8 35.1H267.9C268.5 33.8 270.1 32.6 272.3 32.6C275.8 32.6 277.3 34.8 277.3 38V46.2H275.1V38.2C275.1 36 274.1 34.6 272.1 34.6C269.2 34.6 268 36.7 268 39.7V46.2H265.8V36H265.7ZM281.7 42.6C282.6 43.7 283.5 44.4 285.1 44.4C286.5 44.4 288 43.8 288 42.4C288 41 286.6 40.6 285.2 40.3C282.7 39.7 280.5 39.2 280.5 36.4C280.5 33.8 283 32.5 285.5 32.5C287.4 32.5 289.1 33.2 290 34.9L288.2 36.1C287.6 35.2 286.7 34.5 285.4 34.5C284.2 34.5 282.8 35.1 282.8 36.3C282.8 37.4 284.4 37.9 286.1 38.2C288.4 38.7 290.4 39.5 290.4 42.2C290.4 45.2 287.7 46.4 285.1 46.4C282.9 46.4 281.3 45.8 279.9 43.9L281.7 42.6ZM305.1 43C305.1 44.2 305.2 45.3 305.2 46.1H303.1C303.1 45.4 303 44.7 303 43.9C302.4 45.2 300.8 46.4 298.6 46.4C295.1 46.4 293.6 44.2 293.6 41V32.8H295.8V40.8C295.8 43 296.8 44.4 298.8 44.4C301.7 44.4 302.9 42.3 302.9 39.3V32.8H305.1V43ZM309.2 36C309.2 34.8 309.1 33.7 309.1 32.9H311.2C311.2 33.6 311.3 34.3 311.3 35.1H311.4C312 33.8 313.6 32.6 315.8 32.6C318.7 32.6 319.6 34.2 320 35.1C321 33.5 322.2 32.6 324.2 32.6C328 32.6 329.2 34.7 329.2 38.1V46.1H327V38.2C327 36.4 326.3 34.6 323.8 34.6C321.9 34.6 320.4 36.1 320.4 38.5V46.1H318.2V38.6C318.2 35.7 317.5 34.6 315.7 34.6C312.8 34.6 311.6 36.7 311.6 39.7V46.2H309.4V36H309.2ZM345.2 43.7C343.6 45.7 341.8 46.4 339.3 46.4C335.1 46.4 332.6 43.3 332.6 39.4C332.6 35.3 335.5 32.4 339.4 32.4C343.1 32.4 345.7 34.9 345.7 39.3V40H335C335.2 42.3 336.9 44.2 339.3 44.2C341.2 44.2 342.5 43.5 343.5 42.2L345.2 43.7ZM343.3 38.3C343.2 36.1 341.7 34.6 339.3 34.6C336.9 34.6 335.3 36.1 335 38.3H343.3ZM349.1 36C349.1 34.8 349 33.7 349 32.9H351.1C351.1 33.6 351.2 34.3 351.2 35.1H351.3C351.9 33.8 353.5 32.6 355.7 32.6C356 32.6 356.3 32.6 356.6 32.7L356.5 34.9C356.1 34.8 355.7 34.7 355.3 34.7C352.6 34.7 351.4 36.6 351.4 39.6V46.1H349.2V36H349.1ZM367.3 26.1H379.7V28.3H369.7V34.9H379V37.1H369.7V46.1H367.3V26.1ZM384 26.1C384.9 26.1 385.6 26.8 385.6 27.7C385.6 28.6 384.9 29.3 384 29.3C383.1 29.3 382.4 28.6 382.4 27.7C382.3 26.8 383.1 26.1 384 26.1ZM382.9 32.8H385.1V46H382.9V32.8ZM389.4 36C389.4 34.8 389.3 33.7 389.3 32.9H391.4C391.4 33.6 391.5 34.3 391.5 35.1H391.6C392.2 33.8 393.8 32.6 396 32.6C399.5 32.6 401 34.8 401 38V46.2H398.8V38.2C398.8 36 397.8 34.6 395.8 34.6C392.9 34.6 391.7 36.7 391.7 39.7V46.2H389.5V36H389.4ZM405 34.5C406.4 33.1 408.3 32.5 410.3 32.5C414.2 32.5 415.8 34.4 415.8 38.1V43.8C415.8 44.6 415.9 45.4 416 46.1H413.9C413.8 45.5 413.8 44.7 413.8 44.1H413.7C412.8 45.5 411.4 46.4 409.3 46.4C406.6 46.4 404.4 45 404.4 42.5C404.4 38.1 409.5 37.9 412.8 37.9H413.6V37.5C413.6 35.6 412.4 34.6 410.3 34.6C408.9 34.6 407.4 35.1 406.4 36L405 34.5ZM411.4 39.7C408.6 39.7 406.8 40.5 406.8 42.2C406.8 43.9 408 44.5 409.7 44.5C412.2 44.5 413.6 42.7 413.6 40.5V39.7H411.4ZM419.9 36C419.9 34.8 419.8 33.7 419.8 32.9H421.9C421.9 33.6 422 34.3 422 35.1H422.1C422.7 33.8 424.3 32.6 426.5 32.6C430 32.6 431.5 34.8 431.5 38V46.2H429.3V38.2C429.3 36 428.3 34.6 426.3 34.6C423.4 34.6 422.2 36.7 422.2 39.7V46.2H420V36H419.9ZM445 36.2C444.1 35.1 443 34.6 441.7 34.6C438.7 34.6 437.2 36.8 437.2 39.5C437.2 42.2 439 44.4 441.7 44.4C443.1 44.4 444.2 43.9 445.1 42.8L446.7 44.4C445.4 45.9 443.6 46.5 441.7 46.5C437.6 46.5 434.9 43.6 434.9 39.5C434.9 35.5 437.7 32.5 441.7 32.5C443.7 32.5 445.5 33.2 446.8 34.6L445 36.2ZM450.6 26.1C451.5 26.1 452.2 26.8 452.2 27.7C452.2 28.6 451.5 29.3 450.6 29.3C449.7 29.3 449 28.6 449 27.7C448.9 26.8 449.6 26.1 450.6 26.1ZM449.5 32.8H451.7V46H449.5V32.8ZM455.9 34.5C457.3 33.1 459.2 32.5 461.2 32.5C465.1 32.5 466.7 34.4 466.7 38.1V43.8C466.7 44.6 466.8 45.4 466.9 46.1H464.8C464.7 45.5 464.7 44.7 464.7 44.1H464.6C463.7 45.5 462.3 46.4 460.2 46.4C457.5 46.4 455.3 45 455.3 42.5C455.3 38.1 460.4 37.9 463.7 37.9H464.5V37.5C464.5 35.6 463.3 34.6 461.2 34.6C459.8 34.6 458.3 35.1 457.3 36L455.9 34.5ZM462.3 39.7C459.5 39.7 457.7 40.5 457.7 42.2C457.7 43.9 458.9 44.5 460.6 44.5C463.1 44.5 464.5 42.7 464.5 40.5V39.7H462.3ZM470.9 24.7H473.1V46.1H470.9V24.7ZM229.4 54.7H235.3C239 54.7 242.3 56 242.3 60.2C242.3 64.6 238.6 65.7 235.7 65.7H231.7V74.7H229.3V54.7H229.4ZM231.7 63.6H235.7C238.1 63.6 239.7 62.5 239.7 60.3C239.7 58.1 238.1 57 235.7 57H231.7V63.6ZM245.8 64.7C245.8 63.5 245.7 62.4 245.7 61.6H247.8C247.8 62.3 247.9 63 247.9 63.8H248C248.6 62.5 250.2 61.3 252.4 61.3C252.7 61.3 253 61.3 253.3 61.4L253.2 63.6C252.8 63.5 252.4 63.4 252 63.4C249.3 63.4 248.1 65.3 248.1 68.3V74.8H245.9V64.7H245.8ZM261.5 61.2C265.6 61.2 268.6 64 268.6 68.2C268.6 72.3 265.6 75.2 261.5 75.2C257.4 75.2 254.4 72.4 254.4 68.2C254.4 64 257.4 61.2 261.5 61.2ZM261.5 73.1C264.4 73.1 266.2 70.9 266.2 68.2C266.2 65.5 264.4 63.3 261.5 63.3C258.6 63.3 256.8 65.5 256.8 68.2C256.8 70.9 258.7 73.1 261.5 73.1ZM279.3 63.4H275.4V70C275.4 71.7 275.4 73.1 277.4 73.1C278.1 73.1 278.8 73 279.4 72.6L279.5 74.6C278.7 74.9 277.7 75.1 276.9 75.1C273.8 75.1 273.2 73.4 273.2 70.7V63.4H270.3V61.5H273.2V57.7H275.4V61.5H279.3V63.4ZM293.8 72.4C292.2 74.4 290.4 75.1 287.9 75.1C283.7 75.1 281.2 72 281.2 68.1C281.2 64 284.1 61.1 288 61.1C291.7 61.1 294.3 63.6 294.3 68V68.7H283.6C283.8 71 285.5 72.9 287.9 72.9C289.8 72.9 291.1 72.2 292.1 70.9L293.8 72.4ZM291.9 66.9C291.8 64.7 290.3 63.2 287.9 63.2C285.5 63.2 283.9 64.7 283.6 66.9H291.9ZM307.2 64.8C306.3 63.7 305.2 63.2 303.9 63.2C300.9 63.2 299.4 65.4 299.4 68.1C299.4 70.8 301.2 73 303.9 73C305.3 73 306.5 72.5 307.3 71.4L308.9 73C307.6 74.5 305.8 75.1 303.9 75.1C299.8 75.1 297.1 72.2 297.1 68.1C297.1 64.1 299.9 61.1 303.9 61.1C305.9 61.1 307.7 61.7 309 63.2L307.2 64.8ZM318.6 63.4H314.7V70C314.7 71.7 314.7 73.1 316.7 73.1C317.3 73.1 318.1 73 318.7 72.6L318.8 74.6C318 74.9 317 75.1 316.2 75.1C313.1 75.1 312.5 73.4 312.5 70.7V63.4H309.6V61.5H312.5V57.7H314.7V61.5H318.6V63.4ZM322.6 54.7C323.5 54.7 324.2 55.4 324.2 56.3C324.2 57.2 323.5 57.9 322.6 57.9C321.7 57.9 321 57.2 321 56.3C321 55.5 321.7 54.7 322.6 54.7ZM321.5 61.5H323.7V74.7H321.5V61.5ZM334.4 61.2C338.5 61.2 341.5 64 341.5 68.2C341.5 72.3 338.5 75.2 334.4 75.2C330.3 75.2 327.3 72.4 327.3 68.2C327.4 64 330.4 61.2 334.4 61.2ZM334.4 73.1C337.3 73.1 339.1 70.9 339.1 68.2C339.1 65.5 337.3 63.3 334.4 63.3C331.5 63.3 329.7 65.5 329.7 68.2C329.7 70.9 331.6 73.1 334.4 73.1ZM344.9 64.7C344.9 63.5 344.8 62.4 344.8 61.6H346.9C346.9 62.3 347 63 347 63.8H347.1C347.7 62.5 349.3 61.3 351.5 61.3C355 61.3 356.5 63.5 356.5 66.7V74.9H354.3V66.9C354.3 64.7 353.3 63.3 351.3 63.3C348.4 63.3 347.2 65.4 347.2 68.4V74.9H345V64.7H344.9ZM368.9 54.7H375C378.3 54.7 381.7 55.9 381.7 59.6C381.7 61.9 380.3 63.5 378.2 64.1V64.2C380.8 64.4 382.7 66.5 382.7 69.1C382.7 73.5 378.6 74.7 374.9 74.7H368.9V54.7ZM371.3 63.2H374.6C376.8 63.2 379.2 62.7 379.2 59.9C379.2 57.4 377 56.9 374.9 56.9H371.4V63.2H371.3ZM371.3 72.6H375.3C377.6 72.6 380.1 71.7 380.1 69.1C380.1 66.3 377.7 65.5 375.3 65.5H371.2V72.6H371.3ZM397.9 71.6C397.9 72.8 398 73.9 398 74.7H395.9C395.9 74 395.8 73.3 395.8 72.5H395.7C395.1 73.8 393.5 75 391.3 75C387.8 75 386.3 72.8 386.3 69.6V61.4H388.5V69.4C388.5 71.6 389.5 73 391.5 73C394.4 73 395.6 70.9 395.6 67.9V61.4H397.8V71.6H397.9ZM402.1 64.7C402.1 63.5 402 62.4 402 61.6H404.1C404.1 62.3 404.2 63 404.2 63.8H404.3C404.9 62.5 406.5 61.3 408.7 61.3C409 61.3 409.3 61.3 409.6 61.4L409.5 63.6C409.1 63.5 408.7 63.4 408.3 63.4C405.6 63.4 404.4 65.3 404.4 68.3V74.8H402.2V64.7H402.1ZM423.4 72.4C421.8 74.4 420 75.1 417.5 75.1C413.3 75.1 410.8 72 410.8 68.1C410.8 64 413.7 61.1 417.6 61.1C421.3 61.1 423.9 63.6 423.9 68V68.7H413.2C413.4 71 415.1 72.9 417.5 72.9C419.4 72.9 420.7 72.2 421.7 70.9L423.4 72.4ZM421.5 66.9C421.4 64.7 419.9 63.2 417.5 63.2C415.1 63.2 413.5 64.7 413.2 66.9H421.5ZM427.1 63.2C428.5 61.8 430.4 61.2 432.4 61.2C436.3 61.2 438 63.1 438 66.8V72.5C438 73.3 438.1 74.1 438.2 74.8H436C435.9 74.2 435.9 73.4 435.9 72.8H435.8C434.9 74.2 433.4 75.1 431.4 75.1C428.7 75.1 426.5 73.7 426.5 71.2C426.5 66.8 431.6 66.6 434.9 66.6H435.7V66.2C435.7 64.3 434.5 63.3 432.4 63.3C431 63.3 429.5 63.8 428.5 64.7L427.1 63.2ZM433.5 68.4C430.7 68.4 428.9 69.2 428.9 70.9C428.9 72.6 430.1 73.2 431.8 73.2C434.3 73.2 435.7 71.4 435.7 69.2V68.4H433.5ZM453.5 71.6C453.5 72.8 453.6 73.9 453.6 74.7H451.5C451.5 74 451.4 73.3 451.4 72.5H451.3C450.7 73.8 449.1 75 446.9 75C443.4 75 441.9 72.8 441.9 69.6V61.4H444.1V69.4C444.1 71.6 445.1 73 447.1 73C450 73 451.2 70.9 451.2 67.9V61.4H453.4V71.6H453.5Z" fill="#75787B" stroke="#75787B"/>
<path d="M59 60.6L74.9 63.1V74.8H59V60.6ZM85.8 26.2H74.9V23C74.9 18.2 75.8 14 81.9 14C83.2 14 84.5 14.2 85.8 14.5V0.8C85.8 0.8 85.5 0.7 83.7 0.4C81.8 0.1 79.9 0 77.8 0C61.2 0 59 11.4 59 22.5V40.5L85.8 36.2V26.2ZM166 1.1H150.2V25.9L166 23.3V1.1ZM93.2 100H109V72.3C112.5 74.7 116.8 76 121.7 76C126.2 76 130.3 74.8 133.8 72.6L93.2 66V100ZM121.3 25.1C116.4 25.1 112.4 26.5 109 29.1V26.2H93.2V35L133.9 28.4C130.3 26.3 126 25.1 121.3 25.1ZM35.5 56.7C33.8 59.3 31 61.1 27 61.1C20.2 61.1 16.6 55.7 16.6 50.5C16.6 45.2 20.2 39.9 27 39.9C31 39.9 33.8 41.7 35.5 44.3L51.7 41.7C48.2 31.7 38.9 25.1 26.9 25.1C11.7 25.1 0.700012 35.8 0.700012 50.5C0.700012 65.2 11.7 75.9 26.9 75.9C38.8 75.9 48.2 69.3 51.7 59.3L35.5 56.7Z" fill="#2CB34A"/>
<path d="M74.9 40V63.1L59 60.6V40.5L85.8 36.2V40H74.9ZM150 74.8V25.8L166 23.2V28.7C169.5 26.3 173.6 25 178.5 25C191.9 25 202.1 35.9 202.1 50.4C202.1 65.4 192.2 75.8 178.1 75.8C173.2 75.8 168.4 74.4 165.1 71.8V74.7H150V74.8ZM165.5 50.5C165.5 55.8 169.1 61.1 175.9 61.1C182.7 61.1 186.3 55.8 186.3 50.5C186.3 45.2 182.7 39.9 175.9 39.9C169.1 39.9 165.5 45.2 165.5 50.5ZM133.6 72.6L93 66V35L133.7 28.4C140.8 32.6 145.1 40.6 145.1 50.5C145.1 60.2 140.6 68.3 133.6 72.6ZM129.2 50.5C129.2 45.2 125.6 39.9 118.8 39.9C112 39.9 108.4 45.2 108.4 50.5C108.4 55.8 112 61.1 118.8 61.1C125.7 61.2 129.2 55.8 129.2 50.5Z" fill="#ADDC91"/>
</g>
<defs>
<clipPath id="clip0_1_2">
<rect width="474" height="100" fill="white"/>
</clipPath>
</defs>
</svg>
