<?xml version="1.0" encoding="UTF-8"?><svg id="Layer_1" xmlns="http://www.w3.org/2000/svg" viewBox="0 0 238 50"><defs><style>.cls-1{fill:#5a5d61;font-family:AvenirNext-Medium, 'Avenir Next';font-size:13.88px;font-weight:500;}.cls-2{fill:#addc91;}.cls-3{letter-spacing:0em;}.cls-4{fill:#20aa3f;}.cls-5{letter-spacing:-.02em;}.cls-6{letter-spacing:-.02em;}.cls-7{letter-spacing:-.02em;}.cls-8{letter-spacing:-.05em;}.cls-9{letter-spacing:0em;}.cls-10{letter-spacing:0em;}.cls-11{letter-spacing:.03em;}.cls-12{letter-spacing:.02em;}</style></defs><g id="cfpb_primary_logo_color_cmyk"><text class="cls-1" transform="translate(113.14 23.17)"><tspan class="cls-7" x="0" y="0">C</tspan><tspan class="cls-10" x="9.59" y="0">onsume</tspan><tspan class="cls-12" x="60.21" y="0">r</tspan><tspan class="cls-10" x="65.51" y="0"> </tspan><tspan class="cls-6" x="68.91" y="0">F</tspan><tspan class="cls-3" x="76.54" y="0">inancial </tspan><tspan class="cls-8" x="-.03" y="14.57">P</tspan><tspan class="cls-5" x="7.59" y="14.57">r</tspan><tspan x="12.36" y="14.57">otection Bu</tspan><tspan class="cls-5" x="85.35" y="14.57">r</tspan><tspan class="cls-9" x="90.12" y="14.57">e</tspan><tspan x="97.99" y="14.57">au</tspan><tspan class="cls-11" x="113.59" y="14.57"> </tspan></text><path class="cls-4" d="M29.23,30.28l7.93,1.28v5.85h-7.93v-7.13ZM42.63,13.12h-5.46v-1.6c0-2.41.45-4.5,3.5-4.5.67,0,1.3.1,1.96.25V.44s-.13-.07-1.05-.21c-.95-.15-1.92-.22-2.97-.22C30.35.02,29.23,5.7,29.23,11.26v8.99l13.4-2.17v-4.97ZM82.39.57h-7.93v12.37l7.93-1.29V.57ZM46.11,49.98h7.93v-13.86c1.74,1.22,3.86,1.84,6.32,1.84,2.23,0,4.28-.61,6.03-1.67l-20.28-3.27v16.97ZM60.13,12.57c-2.47,0-4.67.7-6.36,1.97v-1.43h-7.66v4.4l20.34-3.29c-1.8-1.07-3.93-1.66-6.32-1.66ZM17.38,28.36c-.85,1.29-2.27,2.21-4.27,2.21-3.4,0-5.18-2.67-5.18-5.31s1.78-5.31,5.18-5.31c1.99,0,3.42.92,4.27,2.21l8.12-1.31c-1.73-4.98-6.41-8.28-12.38-8.28C5.52,12.57,0,17.91,0,25.26s5.52,12.69,13.11,12.69c5.97,0,10.65-3.3,12.38-8.28l-8.11-1.31Z"/><path class="cls-2" d="M37.17,20.22v11.34l-7.93-1.28v-10.03l13.4-2.17v2.14h-5.46ZM74.45,37.41V12.94l7.93-1.29v2.75c1.74-1.22,3.86-1.84,6.32-1.84,6.72,0,11.79,5.45,11.79,12.69s-4.94,12.69-12.02,12.69c-2.47,0-4.67-.7-6.36-1.98v1.43h-7.66ZM82.21,25.26c0,2.64,1.78,5.31,5.18,5.31s5.18-2.67,5.18-5.31-1.78-5.31-5.18-5.31-5.18,2.67-5.18,5.31ZM66.39,36.28l-20.28-3.27v-15.49l20.34-3.29c3.53,2.11,5.7,6.07,5.7,11.03s-2.26,8.87-5.77,11.02ZM64.22,25.26c0-2.64-1.78-5.31-5.18-5.31s-5.18,2.67-5.18,5.31,1.78,5.31,5.18,5.31,5.18-2.67,5.18-5.31Z"/></g></svg>