<?xml version="1.0" encoding="UTF-8"?>
<svg id="Layer_1" data-name="Layer 1" xmlns="http://www.w3.org/2000/svg" viewBox="0 0 238 50.1">
  <defs>
    <style>
      .cls-1 {
        fill: #5a5d61;
        font-family: AvenirNext-Medium, 'Avenir Next';
        font-size: 13.9px;
        font-weight: 500;
      }

      .cls-1, .cls-2 {
        isolation: isolate;
      }

      .cls-3 {
        fill: #20aa3f;
      }

      .cls-4 {
        fill: #addc91;
      }
    </style>
  </defs>
  <g id="cfpb_primary_logo_color_cmyk" data-name="cfpb primary logo color cmyk">
    <g class="cls-2">
      <g class="cls-2">
        <text class="cls-1" transform="translate(113.3 23.2)"><tspan x="0" y="0">C</tspan></text>
      </g>
      <g class="cls-2">
        <text class="cls-1" transform="translate(122.9 23.2)"><tspan x="0" y="0">onsume</tspan></text>
      </g>
      <g class="cls-2">
        <text class="cls-1" transform="translate(173.6 23.2)"><tspan x="0" y="0">r</tspan></text>
      </g>
      <g class="cls-2">
        <text class="cls-1" transform="translate(182.3 23.2)"><tspan x="0" y="0">F</tspan></text>
      </g>
      <g class="cls-2">
        <text class="cls-1" transform="translate(190 23.2)"><tspan x="0" y="0">inancial</tspan></text>
      </g>
      <g class="cls-2">
        <text class="cls-1" transform="translate(113.3 37.8)"><tspan x="0" y="0">P</tspan></text>
      </g>
      <g class="cls-2">
        <text class="cls-1" transform="translate(120.9 37.8)"><tspan x="0" y="0">r</tspan></text>
      </g>
      <g class="cls-2">
        <text class="cls-1" transform="translate(125.7 37.8)"><tspan x="0" y="0">otection Bu</tspan></text>
      </g>
      <g class="cls-2">
        <text class="cls-1" transform="translate(198.8 37.8)"><tspan x="0" y="0">r</tspan></text>
      </g>
      <g class="cls-2">
        <text class="cls-1" transform="translate(203.6 37.8)"><tspan x="0" y="0">e</tspan></text>
      </g>
      <g class="cls-2">
        <text class="cls-1" transform="translate(211.4 37.8)"><tspan x="0" y="0">au</tspan></text>
      </g>
    </g>
    <path class="cls-3" d="M29.4,30.3l7.9,1.3v5.9h-7.9v-7.1h0ZM42.8,13.1h-5.5v-1.6c0-2.4.5-4.5,3.5-4.5s1.3,0,2,.2V.4s0,0-1-.2c-1-.2-1.9-.2-3-.2C30.5,0,29.4,5.7,29.4,11.2v9l13.4-2.2v-5h0ZM82.6.6h-7.9v12.4l7.9-1.3V.6ZM46.3,50h7.9v-13.9c1.7,1.2,3.9,1.8,6.3,1.8s4.3-.6,6-1.7l-20.3-3.3v17h0ZM60.3,12.6c-2.5,0-4.7.7-6.4,2v-1.4h-7.7v4.4l20.3-3.3c-1.8-1.1-3.9-1.7-6.3-1.7h.1ZM17.6,28.4c-.9,1.3-2.3,2.2-4.3,2.2-3.4,0-5.2-2.7-5.2-5.3s1.8-5.3,5.2-5.3,3.4.9,4.3,2.2l8.1-1.3c-1.7-5-6.4-8.3-12.4-8.3S.2,17.9.2,25.3s5.5,12.7,13.1,12.7,10.6-3.3,12.4-8.3l-8.1-1.3h0Z"/>
    <path class="cls-4" d="M37.4,20.2v11.4l-7.9-1.3v-10l13.4-2.2v2.1h-5.5ZM74.7,37.4V12.9l7.9-1.3v2.8c1.7-1.2,3.9-1.8,6.3-1.8,6.7,0,11.8,5.5,11.8,12.7s-4.9,12.7-12,12.7-4.7-.7-6.4-2v1.4h-7.7,0ZM82.4,25.3c0,2.6,1.8,5.3,5.2,5.3s5.2-2.7,5.2-5.3-1.8-5.3-5.2-5.3-5.2,2.7-5.2,5.3ZM66.6,36.3l-20.3-3.3v-15.5l20.3-3.3c3.5,2.1,5.7,6.1,5.7,11s-2.3,8.9-5.8,11h.1ZM64.4,25.3c0-2.6-1.8-5.3-5.2-5.3s-5.2,2.7-5.2,5.3,1.8,5.3,5.2,5.3,5.2-2.7,5.2-5.3Z"/>
  </g>
</svg>